<svg width="556" height="466" viewBox="0 0 556 466" fill="none" xmlns="http://www.w3.org/2000/svg">
<g filter="url(#filter0_b_153:416)">
<path d="M341.906 466C505.434 466 638 361.682 638 233C638 104.318 505.434 2.20932e-05 341.906 1.49452e-05C178.378 7.79715e-06 204.407 89.6544 45.8124 233C-112.782 376.346 178.378 466 341.906 466Z" fill="url(#paint0_linear_153:416)" fill-opacity="0.2"/>
<path d="M341.906 464.5C504.96 464.5 636.5 360.539 636.5 233C636.5 105.461 504.96 1.50002 341.906 1.50001C301.154 1.50001 272.355 7.08686 249.585 17.6099C226.828 28.1267 209.962 43.6331 193.159 63.7082C183.866 74.8116 174.588 87.3255 164.346 101.14C137.582 137.238 104.235 182.216 46.8182 234.113C7.36888 269.769 -3.71967 301.711 3.62407 329.497C11.0111 357.447 37.1831 381.829 73.7856 401.94C146.916 442.12 260.324 464.5 341.906 464.5Z" stroke="white" stroke-opacity="0.12" stroke-width="3"/>
</g>
<defs>
<filter id="filter0_b_153:416" x="-40" y="-40" width="718" height="546" filterUnits="userSpaceOnUse" color-interpolation-filters="sRGB">
<feFlood flood-opacity="0" result="BackgroundImageFix"/>
<feGaussianBlur in="BackgroundImage" stdDeviation="20"/>
<feComposite in2="SourceAlpha" operator="in" result="effect1_backgroundBlur_153:416"/>
<feBlend mode="normal" in="SourceGraphic" in2="effect1_backgroundBlur_153:416" result="shape"/>
</filter>
<linearGradient id="paint0_linear_153:416" x1="0" y1="0" x2="65.405" y2="726.782" gradientUnits="userSpaceOnUse">
<stop stop-color="#7421B0"/>
<stop offset="0.459933" stop-color="#D08EFF"/>
</linearGradient>
</defs>
</svg>
