<svg width="80" height="80" fill="none" xmlns="http://www.w3.org/2000/svg">
<path d="m63.898 41.547-49.227-28.46a4.282 4.282 0 0 0-.504-.291l-.03-.019-.002.003c-1.488-.717-3.369-.575-5.417.608C3.903 16.168 0 23.626 0 30.045c0 3.597 1.226 6.104 3.15 7.125l49.844 28.78c1.556 1.012 3.631.981 5.913-.335 4.821-2.784 8.73-10.251 8.73-16.679-.002-3.953-1.48-6.588-3.739-7.388Z" fill="#E7DBFF"/><path d="M53.206 66.08 10.453 41.386c-1.924-1.02-3.119-3.594-3.119-7.19 0-6.42 3.903-13.878 8.718-16.658 1.83-1.056 3.526-1.28 4.928-.805l42.952 24.832L53.206 66.08Z" fill="#C0A9F0"/><path d="M50.178 59.014c0 6.428 3.908 9.383 8.729 6.6 4.82-2.784 8.728-10.251 8.728-16.679 0-6.428-3.908-9.382-8.728-6.599-4.821 2.783-8.73 10.25-8.73 16.678Z" fill="#E7DBFF"/><path d="M40.87 58.955c-.625-1.387-.625-2.856-.625-3.935 0-7.526 4.513-16.027 10.275-19.353.569-.328 1.13-.618 1.686-.88l6.263 3.62c-1.744.14-10.237 6.444-11.997 16.613-.4 2.314-.187 5.33 1.158 7.839l-6.76-3.904ZM11.812 42.143c-.625-1.388-.625-2.856-.625-3.935 0-7.526 4.513-16.027 10.274-19.353a22.906 22.906 0 0 1 1.687-.88l6.263 3.62c-1.744.14-10.237 6.443-11.998 16.613-.4 2.314-.186 5.33 1.158 7.84l-6.76-3.905Zm40.932 17.225c0-5.694 3.462-12.31 7.733-14.775 2.492-1.439 4.707-1.145 6.12.48l.003-.002.036.045c.024.027.047.056.07.084L79.13 60.91a4.217 4.217 0 0 1 .5 4.294 3.992 3.992 0 0 1-4.08 2.331l-18.202-1.394v-.003c-2.712-.038-4.603-2.562-4.603-6.77Z" fill="#C0A9F0"/></svg>