<svg width="80" height="80" fill="none" xmlns="http://www.w3.org/2000/svg">
<path d="m56.955 0 16.57 9.63v41.225L51.343 63.662l-3.045 6.365-3.977-2.31L23.045 80l-16.57-9.63V29.146L56.955 0Z" fill="#58948E"/><path d="m45.228 67.193-16.57-9.63 3.07 2.834 16.57 9.63-3.07-2.834Z" fill="#58948E"/><path d="m23.045 38.774-16.57-9.629v41.226l16.57 9.63V38.773Z" fill="#551981"/><path d="M73.525 9.63 56.955 0 6.475 29.145l16.57 9.63 50.48-29.146Z" fill="#C0A9F0"/><path d="M23.045 38.774V80l22.183-12.807 3.07 2.834 3.045-6.365 22.182-12.807V9.63l-50.48 29.145Z" fill="#E7DBFF"/><path d="M64.605 30.181c1.235-.713 2.353-.779 3.161-.31l3.408 1.964-.008-.004c.802.461 1.3 1.448 1.304 2.852.008 2.819-1.974 6.252-4.427 7.669-1.27.733-2.416.78-3.228.266.022.014.044.03.067.043l-3.408-1.964c-.797-.463-1.291-1.448-1.295-2.848-.008-2.819 1.974-6.252 4.426-7.668Zm-15.298 8.833c1.234-.713 2.353-.779 3.16-.31l3.409 1.964-.008-.004c.801.461 1.3 1.448 1.303 2.852.008 2.82-1.974 6.252-4.427 7.669-1.27.733-2.417.78-3.23.266.024.014.046.03.07.043l-3.41-1.963c-.796-.463-1.29-1.449-1.295-2.85-.008-2.817 1.974-6.25 4.428-7.667Zm-15.3 8.833c1.235-.713 2.353-.779 3.16-.31l3.41 1.964-.009-.004c.802.461 1.3 1.448 1.304 2.852.008 2.82-1.974 6.252-4.428 7.669-1.27.733-2.415.78-3.228.266.023.014.045.03.068.043l-3.408-1.963c-.797-.464-1.292-1.45-1.296-2.85-.007-2.818 1.975-6.25 4.427-7.667Z" fill="#E0E0E2"/><path d="M68.014 32.144c-2.453 1.416-4.435 4.85-4.427 7.668.008 2.819 2.003 3.956 4.456 2.54 2.453-1.417 4.435-4.85 4.427-7.669-.008-2.818-2.003-3.955-4.456-2.539Zm-15.299 8.833c-2.453 1.416-4.435 4.85-4.427 7.668.008 2.819 2.003 3.956 4.456 2.54 2.453-1.417 4.435-4.85 4.427-7.67-.008-2.817-2.003-3.954-4.456-2.538Z" fill="#F9F7FF"/><path d="M64.605 30.181c1.235-.713 2.353-.779 3.16-.31l3.41 1.964c-.808-.47-1.927-.403-3.161.31-2.453 1.415-4.435 4.849-4.427 7.667.004 1.4.498 2.386 1.295 2.849l-3.408-1.964c-.797-.463-1.291-1.448-1.295-2.848-.008-2.819 1.974-6.252 4.426-7.668Zm-15.298 8.833c1.234-.713 2.352-.779 3.16-.31l3.409 1.964c-.808-.47-1.927-.403-3.161.31-2.453 1.416-4.435 4.849-4.428 7.667.004 1.4.499 2.386 1.296 2.85l-3.408-1.964c-.797-.463-1.292-1.449-1.296-2.85-.008-2.817 1.974-6.25 4.428-7.667Zm-15.3 8.833c1.235-.713 2.353-.779 3.16-.31l3.409 1.964c-.808-.47-1.926-.403-3.16.31-2.453 1.416-4.435 4.849-4.427 7.667.004 1.4.498 2.386 1.295 2.849l-3.408-1.963c-.797-.464-1.292-1.45-1.296-2.85-.008-2.818 1.975-6.25 4.427-7.667Z" fill="#C0A9F0"/><path d="M37.416 49.81c-2.453 1.416-4.435 4.85-4.427 7.668.008 2.819 2.003 3.956 4.456 2.54 2.453-1.417 4.435-4.85 4.427-7.669-.008-2.818-2.003-3.955-4.456-2.538Z" fill="#F9F7FF"/></svg>