<svg width="80" height="80" fill="none" xmlns="http://www.w3.org/2000/svg"><path d="m80 28.603-4.959-2.863.035-12.306c0 .03-.003.062-.004.093.047-1.382-.863-2.789-2.756-3.88-3.478-1.916-9.019-1.88-12.405.077-1.733 1.002-2.599 2.315-2.6 3.63v-.004l-.004 1.074c-.108.258-.336.499-.668.692l-16.77-9.682-16.66 9.682-.029 10.375c-1.168-.25-2.264-.645-3.204-1.188-1.501-.866-2.357-1.964-2.57-3.094l.004-1.233-.001.012c.006-.397-.258-.783-.749-1.066L0 28.603v22.794l16.704 9.682c.474-.276.739-.647.74-1.032l.004-1.37c.237-1.094 1.078-2.152 2.53-2.99.97-.562 2.118-.964 3.347-1.206l-.03 10.403 16.835 9.682 16.596-9.681c.357.206.593.466.694.746l-.003.969c-.004 1.326.871 2.654 2.624 3.666 3.535 2.04 9.28 2.011 12.726-.089 1.611-.982 2.416-2.25 2.42-3.522l.035-12.52L80 51.398V28.603Z" fill="#C0A9F0"/><path d="m57.378 14.083-.065 22.793a.86.86 0 0 0-.014-.16 3.028 3.028 0 0 1-.053-.572l.064-22.794c0 .191.017.383.053.573a.85.85 0 0 1 .015.16Zm17.698-.649-.064 22.793c-.004 1.306-.865 2.597-2.566 3.585-1.965 1.142-4.63 1.636-7.206 1.48-.768-.047-1.531.106-2.075.422l.065-22.793c.543-.316 1.307-.47 2.075-.422 2.575.155 5.24-.338 7.206-1.48 1.701-.99 2.562-2.28 2.565-3.585ZM17.41 19.976l-.065 22.794c0 .05-.005.098-.013.148-.03.17-.045.34-.045.511l.065-22.793c0-.17.015-.342.045-.512a.894.894 0 0 0 .013-.148Z" fill="#7421B0"/><path d="m35.123 20.688-.065 22.794c.004-1.327-.864-2.655-2.594-3.66-2-1.155-4.68-1.648-7.26-1.49-.76.048-1.516-.11-2.059-.423l.065-22.793c.542.313 1.299.47 2.06.423 2.579-.159 5.258.334 7.259 1.49 1.73 1.004 2.598 2.332 2.594 3.66Z" fill="#C0A9F0"/><path d="m17.376 59.313.065-22.793c.003-1.314.87-2.626 2.601-3.627 3.385-1.957 8.927-1.992 12.56.01l-.066 22.794c-3.632-2.002-9.173-1.967-12.558-.01-1.732 1-2.598 2.312-2.602 3.626Z" fill="#551981"/><path d="m35.226 36.57-.065 22.794c.004-1.326-.872-2.655-2.625-3.667l.065-22.794c1.753 1.013 2.628 2.341 2.625 3.668ZM80 28.603v22.794l-16.725 9.681.065-22.793L80 28.603Zm-62.491 8.65-.065 22.794c-.001.385-.266.757-.74 1.032l.065-22.794c.474-.275.739-.647.74-1.032Z" fill="#551981"/><path d="m16.77 38.285-.066 22.794L0 51.397V28.603l16.77 9.682Z" fill="#C0A9F0"/><path d="m57.54 43.146-.065 22.793c.001-.393-.263-.774-.749-1.054l.065-22.794c.486.28.75.661.749 1.055Z" fill="#7421B0"/><path d="m75.251 43.861-.064 22.794c-.004 1.272-.809 2.54-2.42 3.522-3.447 2.1-9.191 2.13-12.726.09-1.753-1.013-2.628-2.341-2.624-3.667l.065-22.794c-.004 1.327.871 2.655 2.624 3.666 3.535 2.041 9.279 2.011 12.725-.089 1.612-.982 2.417-2.25 2.42-3.522Z" fill="#C0A9F0"/><path d="m56.79 42.09-.064 22.794-16.596 9.682V51.773l16.66-9.682Z" fill="#551981"/><path d="M72.316 9.647c3.637 2.098 3.657 5.36.195 7.372-1.965 1.142-4.631 1.635-7.206 1.48-.768-.047-1.532.106-2.075.422L80 28.603l-16.66 9.682c.542.313 1.299.47 2.06.424 2.58-.16 5.258.334 7.242 1.479 3.406 1.978 3.486 5.188.19 7.195-3.447 2.1-9.191 2.13-12.726.09-1.98-1.143-2.84-2.689-2.579-4.18.077-.444-.19-.886-.736-1.202l-16.66 9.681-16.77-9.682c.543-.316 1.307-.469 2.075-.422 2.575.156 5.24-.338 7.206-1.48 3.461-2.011 3.443-5.273-.04-7.285-3.633-2.002-9.174-1.967-12.56-.01-1.983 1.146-2.831 2.701-2.548 4.2.084.44-.185.878-.724 1.192L0 28.604l16.66-9.682c.547.316.813.758.736 1.203-.259 1.49.6 3.036 2.58 4.178 3.534 2.041 9.278 2.011 12.725-.089 3.297-2.008 3.217-5.217-.172-7.185-2.001-1.155-4.68-1.648-7.26-1.49-.76.047-1.517-.11-2.06-.423l16.66-9.682 16.77 9.682c.539-.314.807-.752.724-1.193-.283-1.498.565-3.053 2.548-4.2 3.386-1.957 8.927-1.992 12.405-.076Z" fill="#E7DBFF"/><path d="M40.13 51.773v22.793l-16.834-9.682.064-22.794 16.77 9.683Z" fill="#C0A9F0"/></svg>