<svg width="374" height="233" viewBox="0 0 374 233" fill="none" xmlns="http://www.w3.org/2000/svg">
<g filter="url(#filter0_b)">
<path d="M162.318 233C61.0745 233 -21 180.841 -21 116.5C-21 52.1588 61.0745 1.36784e-05 162.318 9.2529e-06C263.562 4.82739e-06 247.447 44.8272 345.637 116.5C443.826 188.173 263.562 233 162.318 233Z" fill="url(#paint0_linear)" fill-opacity="0.04"/>
<path d="M162.318 231.5C111.937 231.5 66.3962 218.519 33.4973 197.612C0.580361 176.693 -19.5 147.979 -19.5 116.5C-19.5 85.0211 0.580355 56.307 33.4973 35.3881C66.3962 14.4806 111.937 1.50001 162.318 1.50001C187.528 1.50001 205.309 4.29206 219.342 9.52946C233.35 14.7576 243.725 22.46 254.081 32.4522C259.799 37.9689 265.523 44.2036 271.85 51.0955C288.428 69.153 309.148 91.7224 344.752 117.712C369.162 135.529 375.583 151.167 371.229 164.474C369.013 171.244 363.952 177.672 356.533 183.694C349.122 189.709 339.445 195.247 328.157 200.256C282.954 220.313 212.799 231.5 162.318 231.5Z" stroke="white" stroke-opacity="0.12" stroke-width="3"/>
</g>
<defs>
<filter id="filter0_b" x="-61" y="-40" width="475" height="313" filterUnits="userSpaceOnUse" color-interpolation-filters="sRGB">
<feFlood flood-opacity="0" result="BackgroundImageFix"/>
<feGaussianBlur in="BackgroundImage" stdDeviation="20"/>
<feComposite in2="SourceAlpha" operator="in" result="effect1_backgroundBlur"/>
<feBlend mode="normal" in="SourceGraphic" in2="effect1_backgroundBlur" result="shape"/>
</filter>
<linearGradient id="paint0_linear" x1="-21" y1="1.7266e-05" x2="-21" y2="233" gradientUnits="userSpaceOnUse">
<stop stop-color="#FF59F8"/>
<stop offset="0.197917" stop-color="#AE72FF"/>
<stop offset="0.40625" stop-color="#90E9ED"/>
<stop offset="0.619792" stop-color="#5CD167"/>
<stop offset="0.825321" stop-color="#FFEE00"/>
</linearGradient>
</defs>
</svg>
