<svg width="775" height="467" viewBox="0 0 775 467" fill="none" xmlns="http://www.w3.org/2000/svg">
<g filter="url(#filter0_d)">
<rect width="705" height="397" rx="10" transform="matrix(-1 0 0 1 740 17)" fill="white"/>
</g>
<path d="M346.536 244.28C345.016 244.28 343.784 244.032 342.84 243.536C341.896 243.04 341.216 242.472 340.8 241.832C340.4 241.192 340.2 240.656 340.2 240.224C340.2 240.08 340.264 239.952 340.392 239.84C340.52 239.728 340.664 239.672 340.824 239.672H343.872C344.032 239.672 344.152 239.704 344.232 239.768C344.328 239.848 344.416 239.976 344.496 240.152C344.656 240.52 344.872 240.808 345.144 241.016C345.416 241.24 345.84 241.352 346.416 241.352C347.152 241.352 347.696 241.168 348.048 240.8C348.4 240.448 348.576 239.848 348.576 239V237.392C347.76 238.288 346.592 238.736 345.072 238.736C343.456 238.736 342.216 238.264 341.352 237.32C340.504 236.36 340.04 234.976 339.96 233.168L339.936 232.52C339.936 230.584 340.368 229.064 341.232 227.96C342.096 226.84 343.376 226.28 345.072 226.28C345.888 226.28 346.608 226.44 347.232 226.76C347.856 227.064 348.384 227.48 348.816 228.008V227.12C348.816 226.944 348.872 226.8 348.984 226.688C349.112 226.576 349.256 226.52 349.416 226.52H352.176C352.352 226.52 352.496 226.584 352.608 226.712C352.736 226.824 352.8 226.96 352.8 227.12V238.664C352.8 240.488 352.256 241.88 351.168 242.84C350.08 243.8 348.536 244.28 346.536 244.28ZM346.368 235.616C347.088 235.616 347.624 235.4 347.976 234.968C348.328 234.52 348.528 233.96 348.576 233.288C348.592 233.176 348.6 232.928 348.6 232.544C348.6 232.176 348.592 231.936 348.576 231.824C348.544 231.152 348.344 230.6 347.976 230.168C347.624 229.72 347.088 229.496 346.368 229.496C345.616 229.496 345.072 229.72 344.736 230.168C344.4 230.616 344.216 231.232 344.184 232.016L344.16 232.544C344.16 233.488 344.32 234.24 344.64 234.8C344.96 235.344 345.536 235.616 346.368 235.616ZM356.203 224.72C356.027 224.72 355.883 224.664 355.771 224.552C355.659 224.44 355.603 224.296 355.603 224.12V221.96C355.603 221.784 355.659 221.64 355.771 221.528C355.883 221.416 356.027 221.36 356.203 221.36H359.083C359.259 221.36 359.403 221.416 359.515 221.528C359.627 221.64 359.683 221.784 359.683 221.96V224.12C359.683 224.296 359.627 224.44 359.515 224.552C359.403 224.664 359.259 224.72 359.083 224.72H356.203ZM356.227 239C356.051 239 355.907 238.944 355.795 238.832C355.683 238.72 355.627 238.576 355.627 238.4V227.12C355.627 226.944 355.683 226.8 355.795 226.688C355.907 226.576 356.051 226.52 356.227 226.52H359.059C359.235 226.52 359.379 226.576 359.491 226.688C359.603 226.8 359.659 226.944 359.659 227.12V238.4C359.659 238.56 359.603 238.704 359.491 238.832C359.379 238.944 359.235 239 359.059 239H356.227ZM364.51 239C364.35 239 364.206 238.944 364.078 238.832C363.966 238.704 363.91 238.56 363.91 238.4V229.664H362.086C361.91 229.664 361.766 229.608 361.654 229.496C361.542 229.384 361.486 229.24 361.486 229.064V227.12C361.486 226.944 361.542 226.8 361.654 226.688C361.766 226.576 361.91 226.52 362.086 226.52H363.91V225.752C363.91 224.168 364.358 223.024 365.254 222.32C366.166 221.6 367.47 221.24 369.166 221.24H371.038C371.214 221.24 371.358 221.296 371.47 221.408C371.582 221.52 371.638 221.664 371.638 221.84V223.784C371.638 223.944 371.582 224.088 371.47 224.216C371.358 224.328 371.214 224.384 371.038 224.384H369.358C368.83 224.384 368.454 224.512 368.23 224.768C368.006 225.008 367.894 225.376 367.894 225.872V226.52H370.798C370.974 226.52 371.118 226.576 371.23 226.688C371.342 226.8 371.398 226.944 371.398 227.12V229.064C371.398 229.224 371.342 229.368 371.23 229.496C371.118 229.608 370.974 229.664 370.798 229.664H367.894V238.4C367.894 238.56 367.838 238.704 367.726 238.832C367.614 238.944 367.47 239 367.294 239H364.51ZM372.701 239C372.541 239 372.397 238.944 372.269 238.832C372.157 238.704 372.101 238.56 372.101 238.4V235.352C372.101 235.176 372.157 235.032 372.269 234.92C372.397 234.808 372.541 234.752 372.701 234.752H375.749C375.925 234.752 376.069 234.808 376.181 234.92C376.293 235.032 376.349 235.176 376.349 235.352V238.4C376.349 238.56 376.293 238.704 376.181 238.832C376.069 238.944 375.925 239 375.749 239H372.701Z" fill="#7421B0"/>
<path opacity="0.12" d="M374.072 241.56C371.032 241.56 368.568 241.064 366.68 240.072C364.792 239.08 363.432 237.944 362.6 236.664C361.8 235.384 361.4 234.312 361.4 233.448C361.4 233.16 361.528 232.904 361.784 232.68C362.04 232.456 362.328 232.344 362.648 232.344H368.744C369.064 232.344 369.304 232.408 369.464 232.536C369.656 232.696 369.832 232.952 369.992 233.304C370.312 234.04 370.744 234.616 371.288 235.032C371.832 235.48 372.68 235.704 373.832 235.704C375.304 235.704 376.392 235.336 377.096 234.6C377.8 233.896 378.152 232.696 378.152 231V227.784C376.52 229.576 374.184 230.472 371.144 230.472C367.912 230.472 365.432 229.528 363.704 227.64C362.008 225.72 361.08 222.952 360.92 219.336L360.872 218.04C360.872 214.168 361.736 211.128 363.464 208.92C365.192 206.68 367.752 205.56 371.144 205.56C372.776 205.56 374.216 205.88 375.464 206.52C376.712 207.128 377.768 207.96 378.632 209.016V207.24C378.632 206.888 378.744 206.6 378.968 206.376C379.224 206.152 379.512 206.04 379.832 206.04H385.352C385.704 206.04 385.992 206.168 386.216 206.424C386.472 206.648 386.6 206.92 386.6 207.24V230.328C386.6 233.976 385.512 236.76 383.336 238.68C381.16 240.6 378.072 241.56 374.072 241.56ZM373.736 224.232C375.176 224.232 376.248 223.8 376.952 222.936C377.656 222.04 378.056 220.92 378.152 219.576C378.184 219.352 378.2 218.856 378.2 218.088C378.2 217.352 378.184 216.872 378.152 216.648C378.088 215.304 377.688 214.2 376.952 213.336C376.248 212.44 375.176 211.992 373.736 211.992C372.232 211.992 371.144 212.44 370.472 213.336C369.8 214.232 369.432 215.464 369.368 217.032L369.32 218.088C369.32 219.976 369.64 221.48 370.28 222.6C370.92 223.688 372.072 224.232 373.736 224.232ZM393.406 202.44C393.054 202.44 392.766 202.328 392.542 202.104C392.318 201.88 392.206 201.592 392.206 201.24V196.92C392.206 196.568 392.318 196.28 392.542 196.056C392.766 195.832 393.054 195.72 393.406 195.72H399.166C399.518 195.72 399.806 195.832 400.03 196.056C400.254 196.28 400.366 196.568 400.366 196.92V201.24C400.366 201.592 400.254 201.88 400.03 202.104C399.806 202.328 399.518 202.44 399.166 202.44H393.406ZM393.454 231C393.102 231 392.814 230.888 392.59 230.664C392.366 230.44 392.254 230.152 392.254 229.8V207.24C392.254 206.888 392.366 206.6 392.59 206.376C392.814 206.152 393.102 206.04 393.454 206.04H399.118C399.47 206.04 399.758 206.152 399.982 206.376C400.206 206.6 400.318 206.888 400.318 207.24V229.8C400.318 230.12 400.206 230.408 399.982 230.664C399.758 230.888 399.47 231 399.118 231H393.454ZM410.02 231C409.7 231 409.412 230.888 409.156 230.664C408.932 230.408 408.82 230.12 408.82 229.8V212.328H405.172C404.82 212.328 404.532 212.216 404.308 211.992C404.084 211.768 403.972 211.48 403.972 211.128V207.24C403.972 206.888 404.084 206.6 404.308 206.376C404.532 206.152 404.82 206.04 405.172 206.04H408.82V204.504C408.82 201.336 409.716 199.048 411.508 197.64C413.332 196.2 415.94 195.48 419.332 195.48H423.076C423.428 195.48 423.716 195.592 423.94 195.816C424.164 196.04 424.276 196.328 424.276 196.68V200.568C424.276 200.888 424.164 201.176 423.94 201.432C423.716 201.656 423.428 201.768 423.076 201.768H419.716C418.66 201.768 417.908 202.024 417.46 202.536C417.012 203.016 416.788 203.752 416.788 204.744V206.04H422.596C422.948 206.04 423.236 206.152 423.46 206.376C423.684 206.6 423.796 206.888 423.796 207.24V211.128C423.796 211.448 423.684 211.736 423.46 211.992C423.236 212.216 422.948 212.328 422.596 212.328H416.788V229.8C416.788 230.12 416.676 230.408 416.452 230.664C416.228 230.888 415.94 231 415.588 231H410.02ZM426.401 231C426.081 231 425.793 230.888 425.537 230.664C425.313 230.408 425.201 230.12 425.201 229.8V223.704C425.201 223.352 425.313 223.064 425.537 222.84C425.793 222.616 426.081 222.504 426.401 222.504H432.497C432.849 222.504 433.137 222.616 433.361 222.84C433.585 223.064 433.697 223.352 433.697 223.704V229.8C433.697 230.12 433.585 230.408 433.361 230.664C433.137 230.888 432.849 231 432.497 231H426.401Z" fill="#7421B0"/>
<defs>
<filter id="filter0_d" x="0" y="0" width="775" height="467" filterUnits="userSpaceOnUse" color-interpolation-filters="sRGB">
<feFlood flood-opacity="0" result="BackgroundImageFix"/>
<feColorMatrix in="SourceAlpha" type="matrix" values="0 0 0 0 0 0 0 0 0 0 0 0 0 0 0 0 0 0 127 0" result="hardAlpha"/>
<feMorphology radius="10" operator="erode" in="SourceAlpha" result="effect1_dropShadow"/>
<feOffset dy="18"/>
<feGaussianBlur stdDeviation="22.5"/>
<feColorMatrix type="matrix" values="0 0 0 0 0 0 0 0 0 0 0 0 0 0 0 0 0 0 0.13 0"/>
<feBlend mode="normal" in2="BackgroundImageFix" result="effect1_dropShadow"/>
<feBlend mode="normal" in="SourceGraphic" in2="effect1_dropShadow" result="shape"/>
</filter>
</defs>
</svg>
