<svg width="98" height="59" fill="none" xmlns="http://www.w3.org/2000/svg"><path d="M7.536 58.28c-1.52 0-2.752-.248-3.696-.744-.944-.496-1.624-1.064-2.04-1.704-.4-.64-.6-1.176-.6-1.608a.5.5 0 0 1 .192-.384.639.639 0 0 1 .432-.168h3.048c.16 0 .28.032.36.096.096.08.184.208.264.384.16.368.376.656.648.864.272.224.696.336 1.272.336.736 0 1.28-.184 1.632-.552.352-.352.528-.952.528-1.8v-1.608c-.816.896-1.984 1.344-3.504 1.344-1.616 0-2.856-.472-3.72-1.416-.848-.96-1.312-2.344-1.392-4.152l-.024-.648c0-1.936.432-3.456 1.296-4.56.864-1.12 2.144-1.68 3.84-1.68.816 0 1.536.16 2.16.48.624.304 1.152.72 1.584 1.248v-.888c0-.176.056-.32.168-.432a.639.639 0 0 1 .432-.168h2.76c.176 0 .32.064.432.192a.523.523 0 0 1 .192.408v11.544c0 1.824-.544 3.216-1.632 4.176-1.088.96-2.632 1.44-4.632 1.44Zm-.168-8.664c.72 0 1.256-.216 1.608-.648.352-.448.552-1.008.6-1.68.016-.112.024-.36.024-.744 0-.368-.008-.608-.024-.72-.032-.672-.232-1.224-.6-1.656-.352-.448-.888-.672-1.608-.672-.752 0-1.296.224-1.632.672-.336.448-.52 1.064-.552 1.848l-.024.528c0 .944.16 1.696.48 2.256.32.544.896.816 1.728.816Zm9.835-10.896a.585.585 0 0 1-.432-.168.585.585 0 0 1-.168-.432v-2.16c0-.176.056-.32.168-.432a.585.585 0 0 1 .432-.168h2.88c.176 0 .32.056.432.168a.585.585 0 0 1 .168.432v2.16c0 .176-.056.32-.168.432a.585.585 0 0 1-.432.168h-2.88ZM17.227 53a.585.585 0 0 1-.432-.168.585.585 0 0 1-.168-.432V41.12c0-.176.056-.32.168-.432a.585.585 0 0 1 .432-.168h2.832c.176 0 .32.056.432.168a.585.585 0 0 1 .168.432V52.4c0 .16-.056.304-.168.432a.585.585 0 0 1-.432.168h-2.832Zm8.283 0a.639.639 0 0 1-.432-.168.639.639 0 0 1-.168-.432v-8.736h-1.824a.585.585 0 0 1-.432-.168.585.585 0 0 1-.168-.432V41.12c0-.176.056-.32.168-.432a.585.585 0 0 1 .432-.168h1.824v-.768c0-1.584.448-2.728 1.344-3.432.912-.72 2.216-1.08 3.912-1.08h1.872c.176 0 .32.056.432.168a.585.585 0 0 1 .168.432v1.944c0 .16-.056.304-.168.432a.585.585 0 0 1-.432.168h-1.68c-.528 0-.904.128-1.128.384-.224.24-.336.608-.336 1.104v.648h2.904c.176 0 .32.056.432.168a.585.585 0 0 1 .168.432v1.944c0 .16-.056.304-.168.432a.585.585 0 0 1-.432.168h-2.904V52.4c0 .16-.056.304-.168.432a.585.585 0 0 1-.432.168H25.51Zm8.19 0a.639.639 0 0 1-.431-.168.639.639 0 0 1-.168-.432v-3.048c0-.176.056-.32.168-.432a.639.639 0 0 1 .432-.168h3.048c.176 0 .32.056.432.168a.585.585 0 0 1 .168.432V52.4c0 .16-.056.304-.168.432a.585.585 0 0 1-.432.168H33.7Z" fill="#7421B0"/><path opacity=".12" d="M35.072 55.56c-3.04 0-5.504-.496-7.392-1.488-1.888-.992-3.248-2.128-4.08-3.408-.8-1.28-1.2-2.352-1.2-3.216 0-.288.128-.544.384-.768.256-.224.544-.336.864-.336h6.096c.32 0 .56.064.72.192.192.16.368.416.528.768.32.736.752 1.312 1.296 1.728.544.448 1.392.672 2.544.672 1.472 0 2.56-.368 3.264-1.104.704-.704 1.056-1.904 1.056-3.6v-3.216c-1.632 1.792-3.968 2.688-7.008 2.688-3.232 0-5.712-.944-7.44-2.832-1.696-1.92-2.624-4.688-2.784-8.304l-.048-1.296c0-3.872.864-6.912 2.592-9.12 1.728-2.24 4.288-3.36 7.68-3.36 1.632 0 3.072.32 4.32.96a9.307 9.307 0 0 1 3.168 2.496V21.24c0-.352.112-.64.336-.864.256-.224.544-.336.864-.336h5.52c.352 0 .64.128.864.384.256.224.384.496.384.816v23.088c0 3.648-1.088 6.432-3.264 8.352-2.176 1.92-5.264 2.88-9.264 2.88Zm-.336-17.328c1.44 0 2.512-.432 3.216-1.296.704-.896 1.104-2.016 1.2-3.36.032-.224.048-.72.048-1.488 0-.736-.016-1.216-.048-1.44-.064-1.344-.464-2.448-1.2-3.312-.704-.896-1.776-1.344-3.216-1.344-1.504 0-2.592.448-3.264 1.344-.672.896-1.04 2.128-1.104 3.696l-.048 1.056c0 1.888.32 3.392.96 4.512.64 1.088 1.792 1.632 3.456 1.632Zm19.67-21.792c-.352 0-.64-.112-.864-.336-.224-.224-.336-.512-.336-.864v-4.32c0-.352.112-.64.336-.864.224-.224.512-.336.864-.336h5.76c.352 0 .64.112.864.336.224.224.336.512.336.864v4.32c0 .352-.112.64-.336.864-.224.224-.512.336-.864.336h-5.76ZM54.454 45c-.352 0-.64-.112-.864-.336-.224-.224-.336-.512-.336-.864V21.24c0-.352.112-.64.336-.864.224-.224.512-.336.864-.336h5.664c.352 0 .64.112.864.336.224.224.336.512.336.864V43.8c0 .32-.112.608-.336.864-.224.224-.512.336-.864.336h-5.664Zm16.566 0c-.32 0-.608-.112-.864-.336a1.278 1.278 0 0 1-.336-.864V26.328h-3.648c-.352 0-.64-.112-.864-.336-.224-.224-.336-.512-.336-.864V21.24c0-.352.112-.64.336-.864.224-.224.512-.336.864-.336h3.648v-1.536c0-3.168.896-5.456 2.688-6.864 1.824-1.44 4.432-2.16 7.824-2.16h3.744c.352 0 .64.112.864.336.224.224.336.512.336.864v3.888c0 .32-.112.608-.336.864-.224.224-.512.336-.864.336h-3.36c-1.056 0-1.808.256-2.256.768-.448.48-.672 1.216-.672 2.208v1.296h5.808c.352 0 .64.112.864.336.224.224.336.512.336.864v3.888c0 .32-.112.608-.336.864-.224.224-.512.336-.864.336h-5.808V43.8c0 .32-.112.608-.336.864-.224.224-.512.336-.864.336H71.02Zm16.381 0c-.32 0-.608-.112-.864-.336a1.278 1.278 0 0 1-.336-.864v-6.096c0-.352.112-.64.336-.864.256-.224.544-.336.864-.336h6.096c.352 0 .64.112.864.336.224.224.336.512.336.864V43.8c0 .32-.112.608-.336.864-.224.224-.512.336-.864.336h-6.096Z" fill="#7421B0"/></svg>