<svg width="80" height="80" fill="none" xmlns="http://www.w3.org/2000/svg">
<path d="M65.266 13.716 58.21 5.343a2.94 2.94 0 0 0-.772-.651l.002-.003-7.4-4.32c-.978-.568-2.237-.484-3.557.278L19.018 16.504c-2.996 1.73-5.424 6.37-5.424 10.364v44.058c0 2.242.765 3.803 1.966 4.436l7.21 4.214.005.002.096.056c.95.549 2.19.498 3.546-.285l34.521-19.93c2.996-1.73 5.424-6.37 5.424-10.364V17.444c0-1.574-.385-2.883-1.096-3.728Z" fill="#551981"/><path d="M60.938 59.418 26.418 79.35c-2.996 1.73-5.425-.106-5.425-4.1V31.19c0-3.995 2.429-8.634 5.424-10.364L53.882 4.97c1.7-.981 3.303-.843 4.328.373l7.056 8.373c.711.845 1.096 2.154 1.096 3.728v31.611c0 3.994-2.428 8.634-5.424 10.363Z" fill="#9B63C4"/><path d="M28.759 19.46v18.481c0 2.475 2.678 4.022 4.821 2.785l15.82-9.134a5.859 5.859 0 0 0 2.93-5.074V5.795L28.759 19.46Z" fill="#E7DBFF"/><path d="m52.33 5.795-7.382-4.262-23.62 13.637 7.43 4.29L52.33 5.795Z" fill="#C0A9F0"/><path d="M32.89 22.327v13.291l8.016-4.627V17.7l-8.015 4.627Z" fill="#7421B0"/><path d="m31.544 49.995 24.4-14.088c1.208-.697 2.717.175 2.717 1.57v14.037c0 1.99-1.062 3.83-2.785 4.825l-24.4 14.087c-1.208.697-2.717-.175-2.717-1.569V54.82a5.574 5.574 0 0 1 2.785-4.825Z" fill="#E7DBFF"/><path d="M53.993 44.885 33.362 56.867c-.738.425-1.336-.027-1.336-1.01 0-.985.598-2.128 1.336-2.554l20.631-11.981c.738-.427 1.337.026 1.337 1.01 0 .983-.599 2.127-1.337 2.553Zm0 7.932L33.362 64.8c-.738.426-1.336-.026-1.336-1.01s.598-2.127 1.336-2.553l20.631-11.982c.738-.426 1.337.026 1.337 1.01s-.599 2.127-1.337 2.553Z" fill="#7421B0"/></svg>