<svg width="40" height="40" viewBox="0 0 40 40" fill="none" xmlns="http://www.w3.org/2000/svg">
<g clip-path="url(#clip0)">
<path d="M32.6328 6.8582L29.1049 2.67149C28.9902 2.53539 28.8602 2.42796 28.7192 2.34587L28.7198 2.34465L25.0195 0.184311C24.5309 -0.0995023 23.9014 -0.057388 23.2416 0.323471L9.50897 8.25194C8.01117 9.11681 6.79688 11.4368 6.79688 13.4338V35.4629C6.79688 36.5838 7.17957 37.3645 7.77985 37.6813L11.3852 39.7879L11.3873 39.7891L11.4352 39.8172C11.9107 40.0915 12.5305 40.0662 13.2086 39.6747L30.4691 29.7092C31.9669 28.8446 33.1812 26.5243 33.1812 24.5276V8.72191C33.1812 7.93486 32.9886 7.28056 32.6328 6.8582Z" fill="#551981"/>
<path d="M31.2502 29.9374L13.7498 39.6819C12.2312 40.5273 11 39.6297 11 37.6769V16.1368C11 14.1837 12.2312 11.9155 13.7498 11.0698L27.6733 3.31724C28.5354 2.8374 29.3473 2.90484 29.8671 3.49956L33.444 7.59339C33.8048 8.00639 34 8.64617 34 9.41576V24.8708C34 26.8233 32.7688 29.0921 31.2502 29.9374Z" fill="#7421B0"/>
<path d="M15.5 10.3326V19.573C15.5 20.8105 16.8394 21.5838 17.9109 20.9652L25.821 16.3983C26.7274 15.8749 27.2856 14.9078 27.2856 13.8613V3.5L15.5 10.3326Z" fill="#E7DBFF"/>
<path d="M27.25 3.5L22.4741 0.766602L10.6641 7.58514L15.4644 10.3326L21.3572 6.91629L27.25 3.5Z" fill="#C0A9F0"/>
<path d="M16.4453 11.1637V17.8092L20.4529 15.4954V8.84985L16.4453 11.1637Z" fill="#7421B0"/>
<path d="M15.7722 24.9972L27.9722 17.9534C28.5762 17.6049 29.3309 18.0407 29.3309 18.738V25.7568C29.3309 26.752 28.7999 27.6718 27.9381 28.1692L15.738 35.213C15.1341 35.5615 14.3794 35.1257 14.3794 34.4287V27.4096C14.3794 26.4144 14.9104 25.4949 15.7722 24.9972Z" fill="#E7DBFF"/>
<path d="M26.9968 22.4423L16.681 28.4332C16.312 28.6463 16.0129 28.4201 16.0129 27.9282C16.0129 27.4359 16.312 26.8646 16.681 26.6516L26.9968 20.6607C27.3658 20.4477 27.6652 20.6739 27.6652 21.1658C27.6652 21.6577 27.3658 22.2293 26.9968 22.4423Z" fill="#7421B0"/>
<path d="M26.9968 26.4087L16.681 32.3996C16.312 32.6126 16.0129 32.3864 16.0129 31.8945C16.0129 31.4026 16.312 30.831 16.681 30.6179L26.9968 24.627C27.3658 24.414 27.6652 24.6402 27.6652 25.1321C27.6652 25.624 27.3658 26.1956 26.9968 26.4087Z" fill="#7421B0"/>
</g>
<defs>
<clipPath id="clip0">
<rect width="40" height="40" fill="white"/>
</clipPath>
</defs>
</svg>
